# This file uses centimeters as units for non-parametric coordinates.

mtllib Tree Top Small.mtl
g default
v -337.069685 216.450598 514.893604
v 91.130474 58.431701 625.870079
v 363.144869 -102.842817 374.184273
v -321.325811 298.675190 387.123998
v 24.250832 244.597069 383.802395
v 277.219602 118.757618 330.243732
v -362.343060 283.943273 99.026067
v 38.356661 296.681194 45.225687
v 303.908599 149.266849 -17.440684
v -311.972177 180.127031 -351.844136
v -10.968737 183.526002 -431.180873
v 165.183102 65.438984 -481.305017
v -527.335182 26.169508 -470.754617
v -180.401195 -85.724035 -739.615760
v 302.457521 -190.492666 -557.020132
v 467.354992 -280.587035 -67.047159
v -692.259109 109.560990 151.029933
v -421.295508 113.072142 -423.352236
v 212.380697 -43.769787 -555.104117
v 17.323936 -164.109574 -746.822679
v 402.855237 -246.617950 -317.631638
v 423.774676 -155.469320 143.844482
v 444.639788 -20.010020 -35.456152
v -662.063107 41.866280 -181.885746
v -514.279497 179.371413 414.552136
v -572.195906 192.894463 136.470756
v -117.517600 189.497050 586.674932
v 176.988550 -65.336855 510.953360
v 70.017744 129.364393 500.589419
v -133.183407 308.655418 402.760328
v -341.535210 267.021473 416.810709
v 331.799274 17.452786 365.890070
v 157.141265 178.870532 340.587147
v 8.573087 291.574459 244.567688
v -179.744659 335.393080 72.533089
v -416.107433 263.437623 314.926217
v 300.599773 137.711097 167.255834
v 153.574916 229.565882 9.592430
v 55.649055 266.206492 -226.613945
v -204.226635 183.591132 -405.191897
v -335.820736 247.327134 -172.813644
v 308.092293 66.804195 -289.280324
v 95.272486 107.049886 -466.195928
v -95.163293 80.644096 -604.710096
v -308.866741 -15.986324 -706.192044
v -104.477185 229.672989 490.816278
v 212.755648 58.425068 405.941964
v -176.223530 333.879935 271.695200
v 130.987515 233.458032 225.492604
v -166.116377 280.281107 -199.306623
v 185.689853 211.795957 -262.247238
v -278.673883 113.241018 -537.722845
v 63.312925 -3.019060 -631.380993
v 367.370846 -30.703378 -313.796910
v 417.590933 43.087336 144.497304
v -499.895805 159.446198 -151.740515
v -471.465163 235.612392 329.288380
v 250.870291 -24.875960 -25.553953
v -81.440506 120.931263 18.101543
v -469.720153 131.616586 38.259967
v 225.682852 -64.364502 -288.747730
v -138.413069 90.684610 -268.403623
v -442.465994 97.932988 -310.395525
v 24.166553 -84.448526 -540.721895
v -176.973622 25.768927 -510.724177
v -345.267549 37.514562 -517.235595
v 288.076665 -9.024697 219.850563
v -21.881079 108.107331 269.209426
v -199.624465 212.299779 336.084320
vt 0.375000 0.125000
vt 0.500000 0.125000
vt 0.625000 0.125000
vt 0.375000 0.250000
vt 0.500000 0.250000
vt 0.625000 0.250000
vt 0.375000 0.375000
vt 0.250000 0.250000
vt 0.500000 0.375000
vt 0.625000 0.375000
vt 0.750000 0.250000
vt 0.375000 0.500000
vt 0.125000 0.250000
vt 0.500000 0.500000
vt 0.625000 0.500000
vt 0.875000 0.250000
vt 0.375000 0.625000
vt 0.125000 0.125000
vt 0.500000 0.625000
vt 0.625000 0.625000
vt 0.875000 0.125000
vt 0.750000 0.125000
vt 0.250000 0.125000
vt 0.437500 0.187500
vt 0.562500 0.187500
vt 0.437500 0.312500
vt 0.562500 0.312500
vt 0.437500 0.437500
vt 0.562500 0.437500
vt 0.437500 0.562500
vt 0.562500 0.562500
vt 0.812500 0.187500
vt 0.687500 0.187500
vt 0.187500 0.187500
vt 0.312500 0.187500
vt 0.437500 0.125000
vt 0.562500 0.125000
vt 0.500000 0.187500
vt 0.437500 0.250000
vt 0.375000 0.187500
vt 0.625000 0.187500
vt 0.562500 0.250000
vt 0.500000 0.312500
vt 0.437500 0.375000
vt 0.375000 0.312500
vt 0.312500 0.250000
vt 0.625000 0.312500
vt 0.687500 0.250000
vt 0.562500 0.375000
vt 0.500000 0.437500
vt 0.437500 0.500000
vt 0.375000 0.437500
vt 0.187500 0.250000
vt 0.625000 0.437500
vt 0.812500 0.250000
vt 0.562500 0.500000
vt 0.500000 0.562500
vt 0.437500 0.625000
vt 0.375000 0.562500
vt 0.125000 0.187500
vt 0.625000 0.562500
vt 0.875000 0.187500
vt 0.562500 0.625000
vt 0.812500 0.125000
vt 0.687500 0.125000
vt 0.750000 0.187500
vt 0.187500 0.125000
vt 0.312500 0.125000
vt 0.250000 0.187500
vt 0.562500 0.331267
vt 0.500000 0.350015
vt 0.437500 0.338160
vt 0.562500 0.440976
vt 0.500000 0.454925
vt 0.437500 0.455470
vt 0.562500 0.537958
vt 0.500000 0.542010
vt 0.437500 0.546117
vt 0.562500 0.241155
vt 0.500000 0.256421
vt 0.437500 0.223877
vn -0.172247 0.891388 0.419235
vn 0.230996 0.878855 0.417438
vn 0.243284 0.824444 0.510985
vn -0.229959 0.854415 0.465933
vn 0.670495 0.605514 0.428707
vn 0.572786 0.672329 0.468925
vn 0.430020 0.811371 0.395929
vn 0.138047 0.916751 0.374847
vn -0.180429 0.928743 0.323854
vn 0.687761 0.415260 0.595436
vn 0.598151 0.486237 0.637016
vn 0.873740 0.189537 0.447944
vn 0.769751 0.381768 0.511602
vn 0.570178 0.715362 0.403923
vn 0.527282 0.752822 0.393996
vn -0.035744 0.997560 0.059965
vn -0.353510 0.934127 0.049365
vn 0.321362 0.940862 0.107259
vn 0.256407 0.965020 -0.054704
vn -0.059957 0.994868 -0.081502
vn -0.348993 0.931571 -0.101881
vn 0.486302 0.863195 0.135665
vn 0.613398 0.781611 0.113258
vn 0.653585 0.752621 -0.079930
vn 0.503456 0.863915 -0.013527
vn -0.059171 0.964956 -0.255655
vn -0.348404 0.905750 -0.241311
vn 0.206267 0.945221 -0.253002
vn 0.125092 0.868332 -0.479949
vn -0.101126 0.903290 -0.416943
vn -0.314851 0.882545 -0.349260
vn 0.518236 0.814002 -0.262358
vn 0.692647 0.654978 -0.302067
vn 0.552549 0.647060 -0.525360
vn 0.394486 0.741482 -0.542757
vn -0.198964 0.821808 -0.533897
vn -0.439305 0.813815 -0.380415
vn 0.111913 0.742350 -0.660599
vn 0.101948 0.629709 -0.770113
vn -0.154651 0.751517 -0.641331
vn -0.485823 0.791887 -0.369987
vn 0.357602 0.559009 -0.748084
vn 0.662482 0.431134 -0.612570
vn 0.771066 0.330359 -0.544353
vn 0.346515 0.475714 -0.808470
vn 0.980899 0.117119 -0.155306
vn 0.926271 0.199952 -0.319440
vn 0.870440 0.363098 -0.332407
vn 0.948633 0.303961 -0.087774
vn 0.977210 0.072413 0.199541
vn 0.899030 0.410465 0.152522
vn -0.543763 0.800458 -0.252168
vn -0.494152 0.835056 -0.241859
vn -0.571835 0.810261 -0.128383
vn -0.527760 0.844382 -0.092136
vn -0.538728 0.809906 0.232002
vn -0.480119 0.863132 0.156490
vn -0.372655 -0.859402 0.350081
vn -0.373604 -0.860832 0.345526
vn -0.365778 -0.848849 0.381656
vn -0.365778 -0.848849 0.381656
vn -0.124135 -0.948102 0.292733
vn -0.104733 -0.953648 0.282112
vn -0.219615 -0.913203 0.343262
vn -0.219615 -0.913203 0.343262
vn -0.480208 -0.837844 0.259650
vn -0.432812 -0.854225 0.288052
vn -0.315363 -0.881586 0.351216
vn 0.203969 -0.937426 0.282186
vn 0.261934 -0.926158 0.271334
vn 0.133976 -0.946437 0.293782
vn -0.695224 -0.706244 0.133726
vn -0.655057 -0.755452 -0.013901
vn -0.717050 -0.676540 0.167728
vn -0.721344 -0.675611 0.152358
vn -0.437306 -0.899301 0.004656
vn -0.451270 -0.892324 -0.010663
vn -0.373671 -0.918398 0.130060
vn -0.373949 -0.917866 0.132982
vn -0.328196 -0.932541 0.150512
vn -0.303863 -0.939056 0.160753
vn -0.073202 -0.987456 0.139903
vn -0.094318 -0.982898 0.158163
vn 0.083773 -0.992482 0.089229
vn 0.134774 -0.982382 0.129468
vn 0.194019 -0.969332 0.150841
vn 0.197124 -0.968607 0.151466
vn -0.623356 -0.758255 0.190991
vn -0.644773 -0.742874 0.180018
vn -0.378232 -0.893955 0.240384
vn -0.378210 -0.897098 0.228410
vn -0.037643 -0.989553 0.139169
vn -0.039277 -0.988465 0.146270
vn 0.259814 -0.948919 0.179024
vn 0.266216 -0.937704 0.223247
vn -0.581424 -0.789378 -0.197050
vn -0.581424 -0.789378 -0.197050
vn -0.554914 -0.821252 -0.132726
vn -0.554914 -0.821252 -0.132726
vn -0.515658 -0.854422 0.063709
vn -0.515658 -0.854422 0.063709
vn 0.011580 -0.999418 0.032101
vn 0.011580 -0.999417 0.032101
s 1
g pCube6
usemtl initialShadingGroup
f 1/1/1 27/36/2 46/24/3 31/40/4
f 27/36/2 2/2/5 29/38/6 46/24/3
f 46/24/3 29/38/6 5/5/7 30/39/8
f 31/40/4 46/24/3 30/39/8 4/4/9
f 2/2/5 28/37/10 47/25/11 29/38/6
f 28/37/10 3/3/12 32/41/13 47/25/11
f 47/25/11 32/41/13 6/6/14 33/42/15
f 29/38/6 47/25/11 33/42/15 5/5/7
f 4/4/9 30/39/8 48/26/16 36/45/17
f 30/39/8 5/5/7 34/43/18 48/26/16
f 48/26/16 34/43/18 8/9/19 35/44/20
f 36/45/17 48/26/16 35/44/20 7/7/21
f 5/5/7 33/42/15 49/27/22 34/43/18
f 33/42/15 6/6/14 37/47/23 49/27/22
f 49/27/22 37/47/23 9/10/24 38/49/25
f 34/43/18 49/27/22 38/49/25 8/9/19
f 7/7/21 35/44/20 50/28/26 41/52/27
f 35/44/20 8/9/19 39/50/28 50/28/26
f 50/28/26 39/50/28 11/14/29 40/51/30
f 41/52/27 50/28/26 40/51/30 10/12/31
f 8/9/19 38/49/25 51/29/32 39/50/28
f 38/49/25 9/10/24 42/54/33 51/29/32
f 51/29/32 42/54/33 12/15/34 43/56/35
f 39/50/28 51/29/32 43/56/35 11/14/29
f 10/12/31 40/51/30 52/30/36 18/59/37
f 40/51/30 11/14/29 44/57/38 52/30/36
f 52/30/36 44/57/38 14/19/39 45/58/40
f 18/59/37 52/30/36 45/58/40 13/17/41
f 11/14/29 43/56/35 53/31/42 44/57/38
f 43/56/35 12/15/34 19/61/43 53/31/42
f 53/31/42 19/61/43 15/20/44 20/63/45
f 44/57/38 53/31/42 20/63/45 14/19/39
f 16/22/46 21/64/47 54/32/48 23/66/49
f 21/64/47 15/21/44 19/62/43 54/32/48
f 54/32/48 19/62/43 12/16/34 42/55/33
f 23/66/49 54/32/48 42/55/33 9/11/24
f 3/3/12 22/65/50 55/33/51 32/41/13
f 22/65/50 16/22/46 23/66/49 55/33/51
f 55/33/51 23/66/49 9/11/24 37/48/23
f 32/41/13 55/33/51 37/48/23 6/6/14
f 13/18/41 24/67/52 56/34/53 18/60/37
f 24/67/52 17/23/54 26/69/55 56/34/53
f 56/34/53 26/69/55 7/8/21 41/53/27
f 18/60/37 56/34/53 41/53/27 10/13/31
f 17/23/54 25/68/56 57/35/57 26/69/55
f 25/68/56 1/1/1 31/40/4 57/35/57
f 57/35/57 31/40/4 4/4/9 36/46/17
f 26/69/55 57/35/57 36/46/17 7/8/21
s 2
f 64/76/58 65/77/59 14/19/60 20/63/61
s 3
f 65/77/62 66/78/63 45/58/64 14/19/65
s 4
f 15/21/66 64/76/67 20/63/68
s 5
f 66/78/69 13/17/70 45/58/71
s 4
f 22/65/72 67/79/73 58/70/74 16/22/75
s 2
f 67/79/76 68/80/77 59/71/78 58/70/79
s 3
f 68/80/80 69/81/81 60/72/82 59/71/83
s 5
f 69/81/84 25/68/85 17/23/86 60/72/87
s 4
f 16/22/75 58/70/74 61/73/88 21/64/89
s 2
f 58/70/79 59/71/78 62/74/90 61/73/91
s 3
f 59/71/83 60/72/82 63/75/92 62/74/93
s 5
f 60/72/87 17/23/86 24/67/94 63/75/95
s 4
f 21/64/89 61/73/88 64/76/67 15/21/66
s 2
f 61/73/91 62/74/90 65/77/59 64/76/58
s 3
f 62/74/93 63/75/92 66/78/63 65/77/62
s 5
f 63/75/95 24/67/94 13/17/70 66/78/69
s 4
f 28/37/96 67/79/73 22/65/72 3/3/97
s 2
f 2/2/98 68/80/77 67/79/76 28/37/99
s 3
f 27/36/100 69/81/81 68/80/80 2/2/101
s 5
f 27/36/102 1/1/103 25/68/85 69/81/84
