# This file uses centimeters as units for non-parametric coordinates.

mtllib HalfBanner.mtl
g default
v 26.000000 -326.164215 2.500000
v 78.000000 -326.164215 2.500000
v 130.000000 -326.164215 2.500000
v 26.000000 -125.000000 2.500000
v 78.000000 -125.000000 2.500000
v 130.000000 -125.000000 2.500000
v 26.000000 36.883205 2.500000
v 78.000000 36.883205 2.500000
v 130.000000 36.883205 2.500000
v 26.000000 205.140320 2.500000
v 78.000000 205.140320 2.500000
v 130.000000 205.140320 2.500000
v 26.000000 362.017700 2.500000
v 78.000000 362.017700 2.500000
v 130.000000 362.017700 2.500000
v 26.000000 362.017700 -2.500000
v 78.000000 362.017700 -2.500000
v 130.000000 362.017700 -2.500000
v 26.000000 205.140320 -2.500000
v 78.000000 205.140320 -2.500000
v 130.000000 205.140320 -2.500000
v 26.000000 36.883205 -2.500000
v 78.000000 36.883205 -2.500000
v 130.000000 36.883205 -2.500000
v 26.000000 -125.000000 -2.500000
v 78.000000 -125.000000 -2.500000
v 130.000000 -125.000000 -2.500000
v 26.000000 -326.164215 -2.500000
v 78.000000 -326.164215 -2.500000
v 130.000000 -326.164215 -2.500000
v 26.000000 373.953369 2.500000
v 26.000000 373.953369 -2.500000
v 78.000000 373.953369 2.500000
v 78.000000 373.953369 -2.500000
v 130.000000 373.953369 2.500000
v 130.000000 373.953369 -2.500000
v 26.000000 389.496399 -0.807400
v 26.000000 388.140198 -5.619957
v 78.000000 389.496399 -0.807400
v 78.000000 388.140198 -5.619957
v 130.000000 389.496399 -0.807400
v 130.000000 388.140198 -5.619957
v 26.000000 403.557434 -8.180683
v 26.000000 400.438965 -12.089012
v 78.000000 403.557434 -8.180687
v 78.000000 400.438965 -12.089012
v 130.000000 403.557434 -8.180687
v 130.000000 400.438965 -12.089012
v 15.420520 -441.816040 -2.500000
v 15.420520 -441.816040 2.500000
v 46.261559 -441.816040 -2.500000
v 46.261559 -441.816040 2.500000
v 77.102600 -441.816040 -2.500000
v 77.102600 -441.816040 2.500000
v 10.071192 -498.084808 -2.500000
v 10.071192 -498.084808 2.500000
v 30.213753 -498.084808 -2.500000
v 30.213753 -498.084808 2.500000
v 50.355995 -498.084808 -2.500000
v 50.355995 -498.084808 2.500000
v 3.910434 -559.763977 -2.500000
v 3.910434 -559.763977 2.500000
v 11.731262 -559.763977 -2.500000
v 11.731262 -559.763977 2.500000
v 19.552210 -559.763977 -2.500000
v 19.552210 -559.763977 2.500000
v 0.642740 -590.114441 -2.500000
v 0.642740 -590.114441 2.500000
v 1.928180 -590.114441 -2.500000
v 1.928180 -590.114441 2.500000
v 3.213699 -590.114441 -2.500000
v 3.213699 -590.114441 2.500000
v 0.542764 -592.103394 0.049988
v 2.127655 -592.103394 0.049988
v 3.277573 -592.103394 0.049988
v 20.857506 -559.763977 0.049988
v 51.357677 -498.084808 0.049988
v 78.636353 -441.816040 0.049988
v 132.585953 -326.164215 0.049988
v 132.585953 -125.000000 0.049988
v 132.585953 36.883205 0.049988
v 132.585953 205.140320 0.049988
v 132.585953 362.017700 0.049988
v 132.585953 373.953369 0.049988
v 132.585953 388.831848 -3.165562
v 132.585953 402.029419 -10.095772
v 0.000000 -125.000000 2.500000
v 0.000000 -326.164215 2.500000
v 0.000000 -441.816040 2.500000
v 0.000000 -498.084808 2.500000
v 0.000000 -559.763977 2.500000
v 0.000000 -590.114441 2.500000
v -1.031177 -592.103394 0.049988
v 0.000000 -590.114441 -2.500000
v 0.000000 -559.763977 -2.500000
v 0.000000 -498.084808 -2.500000
v 0.000000 -441.816040 -2.500000
v 0.000000 -326.164215 -2.500000
v 0.000000 -125.000000 -2.500000
v 0.000000 36.883205 -2.500000
v 0.000000 205.140320 -2.500000
v 0.000000 362.017700 -2.500000
v 0.000000 373.953369 -2.500000
v 0.000000 388.140198 -5.619957
v 0.000000 400.438965 -12.089012
v 0.000000 403.557434 -8.180683
v 0.000000 389.496399 -0.807400
v 0.000000 373.953369 2.500000
v 0.000000 362.017700 2.500000
v 0.000000 205.140320 2.500000
v 0.000000 36.883205 2.500000
v -1.904773 -559.763977 -0.172855
v -2.692001 -498.084808 -0.172855
v -2.692001 -441.816040 -0.172855
v -2.692001 -326.164215 -0.172855
v -2.692001 -125.000000 -0.172855
v -2.692001 36.883205 -0.172855
v -2.692001 205.140320 -0.172855
v -2.692001 362.017700 -0.172855
v -2.692001 373.953369 -0.172855
v -2.692001 388.771423 -3.380051
v -2.692001 401.890381 -10.269962
v 77.976830 401.973816 -10.165451
v 130.012955 402.001617 -10.130611
v 26.003611 401.932098 -10.217705
v -0.099698 401.894531 -10.264736
vt 0.011804 0.469609
vt 0.011804 0.270642
vt 0.051805 0.270642
vt 0.051805 0.469609
vt 0.131807 0.270642
vt 0.131807 0.469609
vt 0.211809 0.270642
vt 0.211809 0.469609
vt 0.011804 0.629723
vt 0.051805 0.629723
vt 0.131807 0.629723
vt 0.211809 0.629723
vt 0.011804 0.796142
vt 0.051805 0.796142
vt 0.131807 0.796142
vt 0.211809 0.796142
vt 0.011804 0.951306
vt 0.051805 0.951306
vt 0.131807 0.951306
vt 0.211809 0.951306
vt 0.429907 0.796142
vt 0.429907 0.951306
vt 0.389906 0.951306
vt 0.389906 0.796142
vt 0.309904 0.951306
vt 0.309904 0.796142
vt 0.229902 0.951306
vt 0.229902 0.796142
vt 0.429907 0.629723
vt 0.389906 0.629723
vt 0.309904 0.629723
vt 0.229902 0.629723
vt 0.429907 0.469609
vt 0.389906 0.469609
vt 0.309904 0.469609
vt 0.229902 0.469609
vt 0.429907 0.270642
vt 0.389906 0.270642
vt 0.309904 0.270642
vt 0.229902 0.270642
vt 0.431494 0.007608
vt 0.012639 0.007608
vt 0.012792 0.009575
vt 0.011804 0.009575
vt 0.426634 0.007608
vt 0.014770 0.009575
vt 0.424865 0.007608
vt 0.016748 0.009575
vt 0.225923 0.270642
vt 0.225923 0.469609
vt 0.225923 0.629723
vt 0.225923 0.796142
vt 0.225923 0.951306
vt 0.011804 0.963111
vt 0.051805 0.963111
vt 0.429907 0.963111
vt 0.389906 0.963111
vt 0.131807 0.963111
vt 0.309904 0.963111
vt 0.211809 0.963111
vt 0.225923 0.963111
vt 0.229902 0.963111
vt 0.011804 0.978484
vt 0.051805 0.978484
vt 0.429907 0.977143
vt 0.389906 0.977143
vt 0.131807 0.978484
vt 0.309904 0.977143
vt 0.211809 0.978484
vt 0.225923 0.977827
vt 0.229902 0.977143
vt 0.011804 0.992392
vt 0.051805 0.992392
vt 0.429907 0.989308
vt 0.389906 0.989308
vt 0.131807 0.992392
vt 0.309904 0.989308
vt 0.211809 0.992392
vt 0.225923 0.990880
vt 0.229902 0.989308
vt 0.429907 0.156254
vt 0.406183 0.156254
vt 0.011804 0.156254
vt 0.035528 0.156254
vt 0.358734 0.156254
vt 0.082977 0.156254
vt 0.311285 0.156254
vt 0.130426 0.156254
vt 0.308925 0.156254
vt 0.429907 0.100600
vt 0.414413 0.100600
vt 0.011804 0.100600
vt 0.027298 0.100600
vt 0.383423 0.100600
vt 0.058288 0.100600
vt 0.352434 0.100600
vt 0.089276 0.100600
vt 0.350893 0.100600
vt 0.429907 0.039594
vt 0.423891 0.039594
vt 0.011804 0.039594
vt 0.017820 0.039594
vt 0.411859 0.039594
vt 0.029852 0.039594
vt 0.399826 0.039594
vt 0.041885 0.039594
vt 0.397818 0.039594
vt 0.429907 0.009575
vt 0.428918 0.009575
vt 0.426941 0.009575
vt 0.424963 0.009575
vt 0.432838 0.039594
vt 0.007662 0.100600
vt 0.007662 0.156254
vt 0.007662 0.270642
vt 0.007662 0.469609
vt 0.007662 0.629723
vt 0.007662 0.796142
vt 0.007662 0.951306
vt 0.007662 0.963111
vt 0.007662 0.977767
vt 0.007662 0.990743
vt 0.430061 0.990747
vt 0.229882 0.990853
vt 0.309939 0.990826
vt 0.389901 0.990784
vt 0.011650 0.990747
vt 0.434049 0.990743
vt 0.051810 0.990784
vt 0.211829 0.990853
vt 0.131771 0.990826
vt 0.215788 0.990880
vt 0.010217 0.007608
vt 0.429072 0.007608
vt 0.008873 0.039594
vt 0.434049 0.977767
vt 0.434049 0.963111
vt 0.434049 0.951306
vt 0.434049 0.796142
vt 0.434049 0.629723
vt 0.434049 0.469609
vt 0.434049 0.270642
vt 0.434049 0.156254
vt 0.434049 0.100600
vt 0.215788 0.977827
vt 0.215788 0.963111
vt 0.215788 0.951306
vt 0.215788 0.796142
vt 0.215788 0.629723
vt 0.215788 0.469609
vt 0.215788 0.270642
vt 0.132786 0.156254
vt 0.090818 0.100600
vt 0.043893 0.039594
vt 0.016846 0.007608
vt 0.015077 0.007608
vn 0.000000 0.000000 1.000000
vn 0.000000 0.000000 1.000000
vn 0.000000 0.000000 1.000000
vn 0.000000 0.000000 1.000000
vn 0.000000 0.000000 1.000000
vn 0.000000 0.000000 1.000000
vn 0.000000 0.000000 1.000000
vn 0.000000 0.000000 1.000000
vn 0.000000 0.000000 1.000000
vn 0.000000 0.000000 1.000000
vn 0.000000 0.000000 1.000000
vn 0.000000 0.000000 1.000000
vn 0.000000 0.000000 1.000000
vn 0.000000 0.000000 1.000000
vn 0.000000 0.000000 1.000000
vn 0.000000 0.000000 1.000000
vn 0.000000 0.000000 1.000000
vn 0.000000 0.000000 1.000000
vn 0.000000 0.000000 1.000000
vn 0.000000 0.000000 1.000000
vn 0.000000 0.000000 -1.000000
vn 0.000000 0.000000 -1.000000
vn 0.000000 0.000000 -1.000000
vn 0.000000 0.000000 -1.000000
vn 0.000000 0.000000 -1.000000
vn 0.000000 0.000000 -1.000000
vn 0.000000 0.000000 -1.000000
vn 0.000000 0.000000 -1.000000
vn 0.000000 0.000000 -1.000000
vn 0.000000 0.000000 -1.000000
vn 0.000000 0.000000 -1.000000
vn 0.000000 0.000000 -1.000000
vn 0.000000 0.000000 -1.000000
vn 0.000000 0.000000 -1.000000
vn 0.000000 0.000000 -1.000000
vn 0.000000 0.000000 -1.000000
vn 0.000000 0.000000 -1.000000
vn 0.000000 0.000000 -1.000000
vn 0.000000 0.000000 -1.000000
vn 0.000000 0.000000 -1.000000
vn 0.000000 -0.999997 -0.002260
vn 0.000000 -1.000000 -0.000024
vn 0.000000 -0.776377 0.630269
vn 0.000000 -0.776379 0.630266
vn 0.000000 -1.000000 -0.000032
vn 0.000000 -0.776372 0.630274
vn 0.000000 -1.000000 -0.000125
vn 0.000000 -0.776368 0.630279
vn 0.687769 0.000000 0.725930
vn 1.000000 0.000000 -0.000000
vn 1.000000 0.000000 -0.000000
vn 0.687769 0.000000 0.725930
vn 1.000000 0.000000 0.000000
vn 0.687769 0.000000 0.725930
vn 1.000000 0.000000 0.000000
vn 0.687769 0.000000 0.725930
vn 1.000000 0.000000 0.000000
vn 0.687769 0.000000 0.725930
vn 0.000000 0.119500 0.992834
vn 0.000000 0.000000 1.000000
vn 0.000000 0.000000 1.000000
vn 0.000000 0.119500 0.992834
vn 0.000000 0.000000 -1.000000
vn 0.000000 0.000000 -1.000000
vn 0.000000 -0.118593 -0.992943
vn 0.000000 -0.118593 -0.992943
vn 0.000000 0.000000 1.000000
vn 0.000000 0.000000 1.000000
vn 0.000000 0.119500 0.992834
vn 0.000000 0.119500 0.992834
vn 0.000000 0.000000 -1.000000
vn 0.000000 0.000000 -1.000000
vn 0.000000 -0.118593 -0.992943
vn 0.000000 -0.118593 -0.992943
vn 0.000000 0.000000 1.000000
vn 0.000000 0.000000 1.000000
vn 0.000000 0.119500 0.992834
vn 0.000000 0.119500 0.992834
vn 0.687768 0.000000 0.725930
vn 1.000000 0.000000 0.000000
vn 0.997704 0.013341 0.066395
vn 0.687390 0.083014 0.721529
vn 0.000000 0.000000 -1.000000
vn 0.000000 0.000000 -1.000000
vn 0.000000 -0.118593 -0.992943
vn 0.000000 -0.118593 -0.992943
vn 0.000000 0.339372 0.940652
vn 0.000000 0.339372 0.940652
vn 0.000000 -0.340422 -0.940273
vn 0.000000 -0.340422 -0.940273
vn 0.000000 0.339372 0.940652
vn 0.000000 -0.340422 -0.940273
vn 0.000000 0.339373 0.940652
vn 0.995904 0.034721 0.083481
vn 0.685336 0.244201 0.686061
vn 0.000000 -0.340422 -0.940273
vn 0.000000 0.464401 0.885625
vn 0.000000 0.464401 0.885625
vn 0.000000 -0.465523 -0.885036
vn 0.000000 -0.465523 -0.885036
vn 0.000000 0.464402 0.885625
vn 0.000000 -0.465523 -0.885036
vn 0.000000 0.464402 0.885625
vn 0.992460 0.056694 0.108671
vn 0.680469 0.340484 0.648870
vn 0.000000 -0.465523 -0.885036
vn 0.000000 0.000000 -1.000000
vn 0.000000 0.000000 -1.000000
vn 0.000000 0.000000 -1.000000
vn 0.000000 0.000000 -1.000000
vn 0.000000 0.000000 1.000000
vn 0.000000 0.000000 1.000000
vn 0.000000 0.000000 1.000000
vn 0.000000 0.000000 1.000000
vn 0.000000 0.000000 -1.000000
vn 0.000000 0.000000 -1.000000
vn 0.000000 0.000000 -1.000000
vn 0.000000 0.000000 -1.000000
vn 0.000000 0.000000 1.000000
vn 0.000000 0.000000 1.000000
vn 0.000000 0.000000 1.000000
vn 0.000000 0.000000 1.000000
vn 0.000000 0.000000 -1.000000
vn 0.000000 0.000000 -1.000000
vn 0.000000 0.000000 -1.000000
vn 0.000000 0.000000 -1.000000
vn 0.907821 -0.419353 -0.001826
vn 0.721641 -0.333350 0.606723
vn 0.721641 -0.333350 0.606723
vn 0.907822 -0.419354 0.001373
vn 0.000000 0.000000 1.000000
vn 0.000000 0.000000 1.000000
vn 0.000000 0.000000 1.000000
vn 0.000000 0.000000 1.000000
vn 0.000000 0.000000 -1.000000
vn 0.000000 0.000000 -1.000000
vn 0.000000 0.000000 -1.000000
vn 0.000000 0.000000 -1.000000
vn 0.000000 0.000000 1.000000
vn 0.000000 0.000000 1.000000
vn 0.000000 0.000000 1.000000
vn 0.000000 0.000000 1.000000
vn 0.000000 0.000000 -1.000000
vn 0.000000 0.000000 -1.000000
vn 0.000000 0.000000 -1.000000
vn 0.000000 0.000000 -1.000000
vn 0.000000 0.000000 1.000000
vn 0.000000 0.000000 1.000000
vn 0.000000 0.000000 1.000000
vn 0.000000 0.000000 1.000000
vn 0.000000 0.000000 -1.000000
vn 0.000000 0.000000 -1.000000
vn 0.000000 0.000000 -1.000000
vn 0.000000 0.000000 -1.000000
vn 0.901500 -0.432778 -0.001161
vn 0.816989 -0.392207 0.422732
vn 0.816989 -0.392207 0.422732
vn 0.901500 -0.432778 0.000747
vn 0.000000 0.000000 1.000000
vn 0.000000 0.000000 1.000000
vn 0.000000 0.000000 1.000000
vn 0.000000 0.000000 1.000000
vn 0.000000 0.000000 -1.000000
vn 0.000000 0.000000 -1.000000
vn 0.000000 0.000000 -1.000000
vn 0.000000 0.000000 -1.000000
vn 0.000000 0.000000 1.000000
vn 0.000000 0.000000 1.000000
vn 0.000000 0.000000 1.000000
vn 0.000000 0.000000 1.000000
vn 0.000000 0.000000 -1.000000
vn 0.000000 0.000000 -1.000000
vn 0.000000 0.000000 -1.000000
vn 0.000000 0.000000 -1.000000
vn 0.000000 0.000000 1.000000
vn 0.000000 0.000000 1.000000
vn 0.000000 0.000000 1.000000
vn 0.000000 0.000000 1.000000
vn 0.000000 0.000000 -1.000000
vn 0.000000 0.000000 -1.000000
vn 0.000000 0.000000 -1.000000
vn 0.000000 0.000000 -1.000000
vn 0.895514 -0.445033 -0.000845
vn 0.825171 -0.410075 0.388499
vn 0.825171 -0.410075 0.388499
vn 0.895514 -0.445033 0.000768
vn 0.000000 0.000000 1.000000
vn 0.000000 0.000000 1.000000
vn 0.000000 0.000000 1.000000
vn 0.000000 0.000000 1.000000
vn 0.000000 0.000000 -1.000000
vn 0.000000 0.000000 -1.000000
vn 0.000000 0.000000 -1.000000
vn 0.000000 0.000000 -1.000000
vn 0.000000 0.000000 1.000000
vn 0.000000 0.000000 1.000000
vn 0.000000 0.000000 1.000000
vn 0.000000 0.000000 1.000000
vn 0.000000 0.000000 -1.000000
vn 0.000000 0.000000 -1.000000
vn 0.000000 0.000000 -1.000000
vn 0.000000 0.000000 -1.000000
vn 0.000000 0.000000 1.000000
vn 0.000000 0.000000 1.000000
vn 0.000000 0.000000 1.000000
vn 0.000000 0.000000 1.000000
vn 0.000000 0.000000 -1.000000
vn 0.000000 0.000000 -1.000000
vn 0.000000 0.000000 -1.000000
vn 0.000000 0.000000 -1.000000
vn 0.879518 -0.475864 -0.001137
vn 0.805358 -0.435740 0.401908
vn 0.805358 -0.435740 0.401908
vn 0.879514 -0.475862 -0.003343
vn 0.000000 0.000000 1.000000
vn 0.000000 0.000000 1.000000
vn 0.000000 0.000000 1.000000
vn 0.000000 0.000000 1.000000
vn 0.000000 -0.788512 -0.615019
vn 0.000000 -0.788510 -0.615022
vn 0.000000 -0.788506 -0.615028
vn 0.000000 -0.788502 -0.615033
vn 0.810405 -0.438471 -0.388571
vn 0.810405 -0.438471 -0.388571
vn 0.830001 -0.412476 -0.375448
vn 0.830001 -0.412476 -0.375448
vn 0.822659 -0.394930 -0.408977
vn 0.822659 -0.394930 -0.408977
vn 0.732073 -0.338169 -0.591363
vn 0.732073 -0.338169 -0.591363
vn 0.702138 0.000000 -0.712041
vn 0.702138 0.000000 -0.712041
vn 0.702138 0.000000 -0.712041
vn 0.702138 0.000000 -0.712041
vn 0.702138 0.000000 -0.712041
vn 0.702138 0.000000 -0.712041
vn 0.701590 -0.088121 -0.707112
vn 0.699564 -0.245937 -0.670914
vn 0.694965 -0.334504 -0.636499
vn -0.999980 -0.006382 -0.000197
vn -0.999980 -0.006382 0.000176
vn -0.711482 -0.004540 -0.702690
vn -0.711482 -0.004540 -0.702690
vn -1.000000 0.000000 0.000000
vn -1.000000 0.000000 0.000000
vn -0.653980 0.000000 -0.756512
vn -0.653980 0.000000 -0.756512
vn -1.000000 0.000000 -0.000000
vn -1.000000 0.000000 -0.000000
vn -0.653979 0.000000 -0.756512
vn -0.653979 0.000000 -0.756512
vn -1.000000 0.000000 0.000000
vn -1.000000 0.000000 0.000000
vn -0.653980 0.000000 -0.756512
vn -0.653980 0.000000 -0.756512
vn -0.653979 0.000000 -0.756512
vn -1.000000 0.000000 -0.000000
vn -1.000000 0.000000 -0.000000
vn -0.653979 0.000000 -0.756512
vn -0.653979 0.000000 -0.756512
vn -1.000000 0.000000 0.000000
vn -1.000000 0.000000 0.000000
vn -0.653979 0.000000 -0.756512
vn -0.653979 0.000000 -0.756512
vn -1.000000 0.000000 -0.000000
vn -1.000000 0.000000 -0.000000
vn -0.653979 0.000000 -0.756512
vn -0.653979 0.000000 -0.756513
vn -1.000000 0.000000 0.000000
vn -0.997634 0.013529 0.067405
vn -0.653416 -0.093361 -0.751220
vn -0.998583 0.009438 0.052373
vn -0.649308 -0.162090 -0.743052
vn -0.646451 -0.354953 -0.675359
vn -0.991191 0.061276 0.117414
vn -0.992287 0.057335 0.109910
vn -0.646451 -0.354953 -0.675359
vn -0.758214 -0.004839 0.651988
vn -0.758214 -0.004839 0.651988
vn -0.704579 0.000000 0.709626
vn -0.704579 0.000000 0.709626
vn -0.704579 0.000000 0.709626
vn -0.704579 0.000000 0.709626
vn -0.704579 0.000000 0.709626
vn -0.704579 0.000000 0.709626
vn -0.704579 0.000000 0.709626
vn -0.704579 0.000000 0.709626
vn -0.704579 0.000000 0.709626
vn -0.704579 0.000000 0.709626
vn -0.704579 0.000000 0.709626
vn -0.704579 0.000000 0.709626
vn -0.704579 0.000000 0.709626
vn -0.704214 0.081041 0.705348
vn -0.700235 0.149775 0.698024
vn -0.697429 0.333010 0.634584
vn -0.697429 0.333010 0.634584
vn -0.865841 -0.010288 0.500214
vn -0.865841 -0.010288 0.500214
vn -0.865841 -0.010288 0.500214
vn -0.865841 -0.010288 0.500214
vn -0.854174 -0.013751 -0.519806
vn -0.854174 -0.013751 -0.519806
vn -0.854174 -0.013751 -0.519806
vn -0.854174 -0.013751 -0.519806
vn -0.000000 0.781666 -0.623697
vn -0.000000 0.781666 -0.623697
vn 0.000006 0.781664 -0.623699
vn 0.000006 0.781655 -0.623712
vn -0.000000 0.781661 -0.623703
vn -0.000000 0.781662 -0.623703
vn -0.000001 0.781680 -0.623680
vn -0.000001 0.781680 -0.623680
vn -0.000001 0.781680 -0.623680
vn -0.000001 0.781666 -0.623697
vn -0.000001 0.781666 -0.623697
vn -0.000001 0.781666 -0.623697
vn -0.000000 0.781678 -0.623683
vn -0.000000 0.781678 -0.623683
vn -0.000000 0.781678 -0.623683
vn -0.000000 0.781678 -0.623682
vn -0.000000 0.781655 -0.623711
vn -0.000000 0.781655 -0.623711
vn -0.000000 0.781655 -0.623711
vn -0.000000 0.781655 -0.623711
vn -0.000000 0.781675 -0.623686
vn -0.000000 0.781675 -0.623686
vn -0.000000 0.781675 -0.623686
vn -0.000000 0.781675 -0.623686
vn -0.000000 0.781658 -0.623708
vn -0.000000 0.781658 -0.623708
vn -0.000000 0.781657 -0.623708
vn -0.000000 0.781657 -0.623708
vn -0.000001 0.781666 -0.623697
vn -0.000001 0.781666 -0.623697
vn -0.000001 0.781662 -0.623703
vn -0.000001 0.781662 -0.623703
s 1
g pCube4
usemtl initialShadingGroup
f 87/1/1 88/2/2 1/3/3 4/4/4
f 1/3/3 2/5/5 5/6/6 4/4/4
f 2/5/5 3/7/7 6/8/8 5/6/6
f 111/9/9 87/1/1 4/4/4 7/10/10
f 4/4/4 5/6/6 8/11/11 7/10/10
f 5/6/6 6/8/8 9/12/12 8/11/11
f 110/13/13 111/9/9 7/10/10 10/14/14
f 7/10/10 8/11/11 11/15/15 10/14/14
f 8/11/11 9/12/12 12/16/16 11/15/15
f 109/17/17 110/13/13 10/14/14 13/18/18
f 10/14/14 11/15/15 14/19/19 13/18/18
f 11/15/15 12/16/16 15/20/20 14/19/19
s 2
f 101/21/21 102/22/22 16/23/23 19/24/24
f 16/23/23 17/25/25 20/26/26 19/24/24
f 17/25/25 18/27/27 21/28/28 20/26/26
f 100/29/29 101/21/21 19/24/24 22/30/30
f 19/24/24 20/26/26 23/31/31 22/30/30
f 20/26/26 21/28/28 24/32/32 23/31/31
f 99/33/33 100/29/29 22/30/30 25/34/34
f 22/30/30 23/31/31 26/35/35 25/34/34
f 23/31/31 24/32/32 27/36/36 26/35/35
f 98/37/37 99/33/33 25/34/34 28/38/38
f 25/34/34 26/35/35 29/39/39 28/38/38
f 26/35/35 27/36/36 30/40/40 29/39/39
s 3
f 93/133/41 73/42/42 68/43/43 92/44/44
f 73/42/42 74/156/45 70/46/46 68/43/43
f 74/156/45 75/155/47 72/48/48 70/46/46
s 4
f 3/7/49 79/151/50 80/150/51 6/8/52
f 6/8/52 80/150/51 81/149/53 9/12/54
f 9/12/54 81/149/53 82/148/55 12/16/56
f 12/16/56 82/148/55 83/147/57 15/20/58
s 5
f 108/54/59 109/17/60 13/18/61 31/55/62
s 6
f 16/23/63 102/22/64 103/56/65 32/57/66
s 5
f 13/18/67 14/19/68 33/58/69 31/55/70
s 6
f 17/25/71 16/23/72 32/57/73 34/59/74
s 5
f 14/19/75 15/20/76 35/60/77 33/58/78
s 10
f 15/20/79 83/147/80 84/146/81 35/60/82
s 6
f 18/27/83 17/25/84 34/59/85 36/62/86
s 5
f 107/63/87 108/54/59 31/55/62 37/64/88
s 6
f 32/57/66 103/56/65 104/65/89 38/66/90
s 5
f 31/55/70 33/58/69 39/67/91 37/64/88
s 6
f 34/59/74 32/57/73 38/66/90 40/68/92
s 5
f 33/58/78 35/60/77 41/69/93 39/67/91
s 10
f 35/60/82 84/146/81 85/145/94 41/69/95
s 6
f 36/62/86 34/59/85 40/68/92 42/71/96
s 5
f 106/72/97 107/63/87 37/64/88 43/73/98
s 6
f 38/66/90 104/65/89 105/74/99 44/75/100
s 5
f 37/64/88 39/67/91 45/76/101 43/73/98
s 6
f 40/68/92 38/66/90 44/75/100 46/77/102
s 5
f 39/67/91 41/69/93 47/78/103 45/76/101
s 10
f 41/69/95 85/145/94 86/132/104 47/78/105
s 6
f 42/71/96 40/68/92 46/77/102 48/80/106
s off
f 97/81/107 98/37/108 28/38/109 49/82/110
f 1/3/111 88/2/112 89/83/113 50/84/114
f 28/38/115 29/39/116 51/85/117 49/82/118
f 2/5/119 1/3/120 50/84/121 52/86/122
f 29/39/123 30/40/124 53/87/125 51/85/126
s 12
f 79/151/127 3/7/128 54/88/129 78/152/130
s off
f 3/7/131 2/5/132 52/86/133 54/88/134
f 96/90/135 97/81/136 49/82/137 55/91/138
f 50/84/139 89/83/140 90/92/141 56/93/142
f 49/82/143 51/85/144 57/94/145 55/91/146
f 52/86/147 50/84/148 56/93/149 58/95/150
f 51/85/151 53/87/152 59/96/153 57/94/154
s 13
f 78/152/155 54/88/156 60/97/157 77/153/158
s off
f 54/88/159 52/86/160 58/95/161 60/97/162
f 95/99/163 96/90/164 55/91/165 61/100/166
f 56/93/167 90/92/168 91/101/169 62/102/170
f 55/91/171 57/94/172 63/103/173 61/100/174
f 58/95/175 56/93/176 62/102/177 64/104/178
f 57/94/179 59/96/180 65/105/181 63/103/182
s 14
f 77/153/183 60/97/184 66/106/185 76/154/186
s off
f 60/97/187 58/95/188 64/104/189 66/106/190
f 94/108/191 95/99/192 61/100/193 67/109/194
f 62/102/195 91/101/196 92/44/197 68/43/198
f 61/100/199 63/103/200 69/110/201 67/109/202
f 64/104/203 62/102/204 68/43/205 70/46/206
f 63/103/207 65/105/208 71/111/209 69/110/210
s 15
f 76/154/211 66/106/212 72/48/213 75/155/214
s off
f 66/106/215 64/104/216 70/46/217 72/48/218
s 3
f 94/108/219 67/109/220 73/134/42 93/41/41
f 67/109/220 69/110/221 74/45/45 73/134/42
f 69/110/221 71/111/222 75/47/47 74/45/45
s 15
f 65/105/223 76/107/211 75/47/214 71/111/224
s 14
f 59/96/225 77/98/183 76/107/186 65/105/226
s 13
f 53/87/227 78/89/155 77/98/158 59/96/228
s 12
f 30/40/229 79/49/127 78/89/130 53/87/230
s 4
f 80/50/51 79/49/50 30/40/231 27/36/232
f 81/51/53 80/50/51 27/36/232 24/32/233
f 82/52/55 81/51/53 24/32/233 21/28/234
f 83/53/57 82/52/55 21/28/234 18/27/235
s 10
f 84/61/81 83/53/80 18/27/236 36/62/237
f 85/70/94 84/61/81 36/62/237 42/71/238
f 86/79/104 85/70/94 42/71/238 48/80/239
s 16
f 112/112/240 113/144/241 96/90/242 95/99/243
s 17
f 113/144/244 114/143/245 97/81/246 96/90/247
s 18
f 114/143/248 115/142/249 98/37/250 97/81/251
s 19
f 115/142/252 116/141/253 99/33/254 98/37/255
s 20
f 99/33/256 116/141/257 117/140/258 100/29/259
s 21
f 100/29/260 117/140/261 118/139/262 101/21/263
s 22
f 101/21/264 118/139/265 119/138/266 102/22/267
s 23
f 102/22/268 119/138/269 120/137/270 103/56/271
f 103/56/271 120/137/270 121/136/272 104/65/273
s 24
f 104/65/274 121/136/275 122/128/276 105/74/277
s 16
f 90/92/278 113/113/241 112/135/240 91/101/279
s 17
f 89/83/280 114/114/245 113/113/244 90/92/281
s 18
f 88/2/282 115/115/249 114/114/248 89/83/283
s 19
f 88/2/284 87/1/285 116/116/253 115/115/252
s 20
f 117/117/258 116/116/257 87/1/286 111/9/287
s 21
f 118/118/262 117/117/261 111/9/288 110/13/289
s 22
f 119/119/266 118/118/265 110/13/290 109/17/291
s 23
f 120/120/270 119/119/269 109/17/292 108/54/293
f 121/121/272 120/120/270 108/54/293 107/63/294
s 24
f 122/122/276 121/121/275 107/63/295 106/72/296
s off
f 93/133/297 92/44/298 91/101/299 112/135/300
f 94/108/301 93/41/302 112/112/303 95/99/304
s 25
f 106/72/305 126/127/306 122/122/307
s 26
f 122/128/308 126/123/309 105/74/310
s off
f 124/130/311 47/78/312 86/132/313
f 48/80/314 124/124/315 86/79/316
f 45/76/317 47/78/318 124/130/319 123/131/320
f 46/77/321 123/125/322 124/124/323 48/80/324
f 45/76/325 123/131/326 125/129/327 43/73/328
f 44/75/329 125/126/330 123/125/331 46/77/332
s 25
f 43/73/333 125/129/334 126/127/306 106/72/305
s 26
f 105/74/310 126/123/309 125/126/335 44/75/336
