# This file uses centimeters as units for non-parametric coordinates.

mtllib Railing_Bar.mtl
g default
v 0.000000 -300.000000 0.000000
v 0.000000 300.000000 0.000000
v 23.776428 -297.531036 -7.725430
v 21.399031 -300.000000 -6.952969
v 18.203104 -300.000000 -13.225328
v 20.225439 -297.531036 -14.694640
v 14.694640 -297.531036 -20.225437
v 13.225328 -300.000000 -18.203102
v 6.952966 -300.000000 -21.399029
v 7.725429 -297.531036 -23.776426
v 0.000000 -297.531036 -25.000011
v 0.000000 -300.000000 -22.500269
v -6.952965 -300.000000 -21.399029
v -7.725429 -297.531036 -23.776424
v -14.694637 -297.531036 -20.225433
v -13.225325 -300.000000 -18.203100
v -18.203096 -300.000000 -13.225324
v -20.225431 -297.531036 -14.694635
v -23.776419 -297.531036 -7.725427
v -21.399021 -300.000000 -6.952964
v -22.500263 -300.000000 0.000000
v -25.000006 -297.531036 0.000000
v -23.776419 -297.531036 7.725427
v -21.399023 -300.000000 6.952964
v -18.203094 -300.000000 13.225323
v -20.225430 -297.531036 14.694634
v -14.694634 -297.531036 20.225428
v -13.225323 -300.000000 18.203093
v -6.952964 -300.000000 21.399021
v -7.725427 -297.531036 23.776417
v -0.000001 -297.531036 25.000004
v -0.000001 -300.000000 22.500261
v 6.952961 -300.000000 21.399019
v 7.725424 -297.531036 23.776415
v 14.694632 -297.531036 20.225426
v 13.225320 -300.000000 18.203091
v 18.203091 -300.000000 13.225321
v 20.225426 -297.531036 14.694633
v 23.776413 -297.531036 7.725425
v 21.399015 -300.000000 6.952962
v 22.500257 -300.000000 -0.000003
v 25.000000 -297.531036 0.000000
v 23.776428 297.531036 -7.725430
v 21.399031 300.000000 -6.952969
v 18.203104 300.000000 -13.225328
v 20.225439 297.531036 -14.694640
v 14.694640 297.531036 -20.225437
v 13.225328 300.000000 -18.203102
v 6.952966 300.000000 -21.399029
v 7.725429 297.531036 -23.776426
v 0.000000 297.531036 -25.000011
v 0.000000 300.000000 -22.500269
v -6.952965 300.000000 -21.399029
v -7.725429 297.531036 -23.776424
v -14.694637 297.531036 -20.225433
v -13.225325 300.000000 -18.203100
v -18.203096 300.000000 -13.225324
v -20.225431 297.531036 -14.694635
v -23.776419 297.531036 -7.725427
v -21.399021 300.000000 -6.952964
v -22.500263 300.000000 0.000000
v -25.000006 297.531036 0.000000
v -23.776419 297.531036 7.725427
v -21.399023 300.000000 6.952964
v -18.203094 300.000000 13.225323
v -20.225430 297.531036 14.694634
v -14.694634 297.531036 20.225428
v -13.225323 300.000000 18.203093
v -6.952964 300.000000 21.399021
v -7.725427 297.531036 23.776417
v -0.000001 297.531036 25.000004
v -0.000001 300.000000 22.500261
v 6.952961 300.000000 21.399019
v 7.725424 297.531036 23.776415
v 14.694632 297.531036 20.225426
v 13.225320 300.000000 18.203091
v 18.203091 300.000000 13.225321
v 20.225426 297.531036 14.694633
v 23.776413 297.531036 7.725425
v 21.399015 300.000000 6.952962
v 22.500257 300.000000 -0.000003
v 25.000000 297.531036 0.000000
vt 0.641900 0.003619
vt 0.964280 0.149294
vt 0.977376 0.127671
vt 0.681814 0.003616
vt 0.601987 0.003623
vt 0.945144 0.165811
vt 0.721727 0.003612
vt 0.761640 0.003608
vt 0.971239 0.054566
vt 0.003288 0.003681
vt 0.954722 0.035430
vt 0.043201 0.003677
vt 0.933100 0.022334
vt 0.083114 0.003673
vt 0.908489 0.016561
vt 0.123028 0.003669
vt 0.883298 0.018676
vt 0.162941 0.003666
vt 0.859994 0.028471
vt 0.202854 0.003662
vt 0.840858 0.044988
vt 0.242767 0.003658
vt 0.827762 0.066611
vt 0.282681 0.003654
vt 0.821989 0.091221
vt 0.322594 0.003650
vt 0.824104 0.116412
vt 0.362507 0.003646
vt 0.833899 0.139716
vt 0.402421 0.003643
vt 0.850416 0.158852
vt 0.442334 0.003639
vt 0.872039 0.171948
vt 0.482247 0.003635
vt 0.896649 0.177721
vt 0.522160 0.003631
vt 0.921840 0.175606
vt 0.562074 0.003627
vt 0.642796 0.998102
vt 0.983066 0.304684
vt 0.979769 0.279591
vt 0.602882 0.998106
vt 0.682709 0.998098
vt 0.978449 0.329568
vt 0.722622 0.998094
vt 0.966368 0.351807
vt 0.928706 0.392270
vt 0.925160 0.380114
vt 0.044096 0.998160
vt 0.900067 0.383412
vt 0.084009 0.998156
vt 0.875183 0.378794
vt 0.123923 0.998152
vt 0.852944 0.366713
vt 0.163836 0.998148
vt 0.835527 0.348351
vt 0.203749 0.998144
vt 0.824637 0.325505
vt 0.243663 0.998140
vt 0.821339 0.300413
vt 0.283576 0.998137
vt 0.825957 0.275529
vt 0.323489 0.998133
vt 0.838038 0.253290
vt 0.363403 0.998129
vt 0.856400 0.235873
vt 0.403316 0.998125
vt 0.879246 0.224982
vt 0.443229 0.998121
vt 0.904339 0.221685
vt 0.483142 0.998117
vt 0.929222 0.226303
vt 0.523056 0.998113
vt 0.951461 0.238384
vt 0.562969 0.998110
vt 0.968878 0.256746
vt 0.902569 0.097141
vt 0.902203 0.302548
vt 0.981035 0.077870
vt 0.802449 0.998087
vt 0.982015 0.047944
vt 0.762535 0.998090
vt 0.983149 0.103061
vt 0.948005 0.369224
vt 0.979344 0.249617
vt 0.991925 0.276045
vt 0.959211 0.228370
vt 0.933499 0.214384
vt 0.904722 0.209028
vt 0.875700 0.212826
vt 0.849271 0.225407
vt 0.828024 0.245540
vt 0.814038 0.271252
vt 0.808682 0.300029
vt 0.812481 0.329051
vt 0.825062 0.355480
vt 0.845194 0.376727
vt 0.870907 0.390713
vt 0.899683 0.396069
vt 0.004183 0.998164
vt 0.955134 0.379689
vt 0.976382 0.359557
vt 0.990368 0.333844
vt 0.995723 0.305068
vt 0.951766 0.176586
vt 0.924808 0.187901
vt 0.895673 0.190331
vt 0.867214 0.183639
vt 0.842214 0.168480
vt 0.823123 0.146338
vt 0.811809 0.119380
vt 0.809379 0.090245
vt 0.816071 0.061785
vt 0.831230 0.036787
vt 0.853372 0.017695
vt 0.880330 0.006381
vt 0.909465 0.003951
vt 0.937925 0.010643
vt 0.962924 0.025802
vt 0.801553 0.003604
vt 0.993329 0.074902
vt 0.995759 0.104037
vt 0.989067 0.132496
vt 0.973908 0.157495
vn 0.668320 -0.711474 -0.217148
vn 0.668320 -0.711474 -0.217148
vn 0.568507 -0.711474 -0.413043
vn 0.568507 -0.711474 -0.413043
vn 0.702713 -0.711473 0.000001
vn 0.702713 -0.711473 0.000001
vn 0.413044 -0.711474 -0.568506
vn 0.413044 -0.711474 -0.568506
vn 0.217150 -0.711475 -0.668318
vn 0.217150 -0.711475 -0.668318
vn 0.000000 -0.711473 -0.702714
vn 0.000000 -0.711473 -0.702714
vn -0.217150 -0.711472 -0.668321
vn -0.217150 -0.711472 -0.668321
vn -0.413045 -0.711474 -0.568506
vn -0.413045 -0.711474 -0.568506
vn -0.568507 -0.711474 -0.413043
vn -0.568507 -0.711474 -0.413043
vn -0.668320 -0.711474 -0.217149
vn -0.668320 -0.711474 -0.217149
vn -0.702713 -0.711473 -0.000001
vn -0.702713 -0.711474 -0.000001
vn -0.668320 -0.711474 0.217148
vn -0.668320 -0.711474 0.217148
vn -0.568507 -0.711473 0.413045
vn -0.568507 -0.711473 0.413045
vn -0.413044 -0.711473 0.568508
vn -0.413044 -0.711473 0.568508
vn -0.217150 -0.711474 0.668319
vn -0.217150 -0.711474 0.668319
vn -0.000000 -0.711473 0.702714
vn -0.000000 -0.711473 0.702714
vn 0.217150 -0.711472 0.668321
vn 0.217150 -0.711472 0.668321
vn 0.413044 -0.711473 0.568508
vn 0.413044 -0.711473 0.568508
vn 0.568506 -0.711473 0.413045
vn 0.568506 -0.711473 0.413045
vn 0.668320 -0.711474 0.217149
vn 0.668320 -0.711474 0.217149
vn 0.668320 0.711474 -0.217149
vn 0.114202 0.992764 -0.037106
vn 0.120079 0.992764 0.000000
vn 0.702713 0.711473 0.000001
vn 0.568507 0.711474 -0.413043
vn 0.097146 0.992764 -0.070580
vn 0.413044 0.711474 -0.568506
vn 0.070580 0.992764 -0.097147
vn 0.217150 0.711475 -0.668318
vn 0.037106 0.992764 -0.114203
vn 0.000000 0.711473 -0.702714
vn 0.000000 0.992764 -0.120080
vn -0.217150 0.711472 -0.668321
vn -0.037106 0.992764 -0.114202
vn -0.413044 0.711473 -0.568508
vn -0.070580 0.992764 -0.097147
vn -0.568507 0.711473 -0.413045
vn -0.097146 0.992764 -0.070583
vn -0.668320 0.711474 -0.217149
vn -0.114202 0.992764 -0.037108
vn -0.702713 0.711474 -0.000001
vn -0.120079 0.992764 -0.000000
vn -0.668320 0.711474 0.217149
vn -0.114202 0.992764 0.037107
vn -0.568507 0.711474 0.413043
vn -0.097146 0.992764 0.070582
vn -0.413045 0.711475 0.568505
vn -0.070581 0.992764 0.097146
vn -0.217151 0.711476 0.668317
vn -0.037106 0.992765 0.114201
vn -0.000000 0.711473 0.702714
vn -0.000000 0.992765 0.120078
vn 0.217150 0.711472 0.668321
vn 0.037106 0.992765 0.114201
vn 0.413044 0.711473 0.568508
vn 0.070580 0.992764 0.097145
vn 0.568506 0.711473 0.413045
vn 0.097146 0.992764 0.070581
vn 0.668320 0.711474 0.217149
vn 0.114202 0.992764 0.037106
vn 0.951057 0.000000 -0.309016
vn 0.809017 0.000000 -0.587785
vn 0.809017 0.000000 -0.587785
vn 0.951057 0.000000 -0.309016
vn 0.587785 0.000000 -0.809017
vn 0.587785 0.000000 -0.809017
vn 0.309017 0.000000 -0.951057
vn 0.309017 0.000000 -0.951057
vn -0.000000 0.000000 -1.000000
vn -0.000000 0.000000 -1.000000
vn -0.309017 0.000000 -0.951057
vn -0.309017 0.000000 -0.951057
vn -0.587785 0.000000 -0.809017
vn -0.587785 0.000000 -0.809017
vn -0.809017 0.000000 -0.587785
vn -0.809017 0.000000 -0.587785
vn -0.951057 0.000000 -0.309017
vn -0.951057 0.000000 -0.309017
vn -1.000000 0.000000 0.000000
vn -1.000000 0.000000 0.000000
vn -0.951057 0.000000 0.309017
vn -0.951057 0.000000 0.309017
vn -0.809017 0.000000 0.587785
vn -0.809017 0.000000 0.587785
vn -0.587785 0.000000 0.809017
vn -0.587785 0.000000 0.809017
vn -0.309017 0.000000 0.951057
vn -0.309017 0.000000 0.951057
vn 0.000000 0.000000 1.000000
vn 0.000000 0.000000 1.000000
vn 0.309017 0.000000 0.951056
vn 0.309017 0.000000 0.951056
vn 0.587785 0.000000 0.809017
vn 0.587785 0.000000 0.809017
vn 0.809017 0.000000 0.587785
vn 0.809017 0.000000 0.587785
vn 0.951057 0.000000 0.309017
vn 0.951057 0.000000 0.309017
vn 1.000000 0.000000 0.000001
vn 1.000000 0.000000 0.000001
vn 0.000000 -1.000000 0.000001
vn 0.000000 -1.000000 0.000000
vn 0.000000 -1.000000 -0.000001
vn 0.000000 -1.000000 -0.000001
vn 0.000000 -1.000000 -0.000003
vn 0.000000 -1.000000 -0.000002
vn 0.000000 -1.000000 0.000000
vn 0.000000 -1.000000 -0.000001
vn 0.000000 -1.000000 -0.000003
vn 0.000000 -1.000000 -0.000001
vn 0.000000 -1.000000 0.000000
vn 0.000000 -1.000000 0.000001
vn 0.000000 -1.000000 0.000002
vn 0.000000 -1.000000 0.000001
vn 0.000000 -1.000000 0.000000
vn 0.000000 -1.000000 -0.000000
vn 0.000000 -1.000000 -0.000001
vn 0.000000 -1.000000 -0.000001
vn 0.000000 -1.000000 -0.000000
vn 0.000000 -1.000000 -0.000001
vn 0.000000 -1.000000 -0.000001
vn 0.000000 1.000000 -0.000001
s 1
g pCylinder1
usemtl lambert2SG
f 3/124/1 4/2/2 5/3/3 6/123/4
f 4/2/2 3/124/1 42/105/5 41/6/6
f 6/123/4 5/3/3 8/83/7 7/122/8
f 7/122/8 8/83/7 9/79/9 10/121/10
f 10/121/10 9/79/9 12/9/11 11/81/12
f 11/81/12 12/9/11 13/11/13 14/119/14
f 14/119/14 13/11/13 16/13/15 15/118/16
f 15/118/16 16/13/15 17/15/17 18/117/18
f 18/117/18 17/15/17 20/17/19 19/116/20
f 19/116/20 20/17/19 21/19/21 22/115/22
f 22/115/22 21/19/21 24/21/23 23/114/24
f 23/114/24 24/21/23 25/23/25 26/113/26
f 26/113/26 25/23/25 28/25/27 27/112/28
f 27/112/28 28/25/27 29/27/29 30/111/30
f 30/111/30 29/27/29 32/29/31 31/110/32
f 31/110/32 32/29/31 33/31/33 34/109/34
f 34/109/34 33/31/33 36/33/35 35/108/36
f 35/108/36 36/33/35 37/35/37 38/107/38
f 38/107/38 37/35/37 40/37/39 39/106/40
f 39/106/40 40/37/39 41/6/6 42/105/5
s 2
f 43/104/41 44/40/42 81/41/43 82/86/44
f 44/40/42 43/104/41 46/103/45 45/44/46
f 45/44/46 46/103/45 47/102/47 48/46/48
f 48/46/48 47/102/47 50/101/49 49/84/50
f 49/84/50 50/101/49 51/47/51 52/48/52
f 52/48/52 51/47/51 54/99/53 53/50/54
f 53/50/54 54/99/53 55/98/55 56/52/56
f 56/52/56 55/98/55 58/97/57 57/54/58
f 57/54/58 58/97/57 59/96/59 60/56/60
f 60/56/60 59/96/59 62/95/61 61/58/62
f 61/58/62 62/95/61 63/94/63 64/60/64
f 64/60/64 63/94/63 66/93/65 65/62/66
f 65/62/66 66/93/65 67/92/67 68/64/68
f 68/64/68 67/92/67 70/91/69 69/66/70
f 69/66/70 70/91/69 71/90/71 72/68/72
f 72/68/72 71/90/71 74/89/73 73/70/74
f 73/70/74 74/89/73 75/88/75 76/72/76
f 76/72/76 75/88/75 78/87/77 77/74/78
f 77/74/78 78/87/77 79/85/79 80/76/80
f 80/76/80 79/85/79 82/86/44 81/41/43
s 3
f 3/1/81 6/4/82 46/43/83 43/39/84
f 6/4/82 7/7/85 47/45/86 46/43/83
f 7/7/85 10/8/87 50/82/88 47/45/86
f 10/8/87 11/120/89 51/80/90 50/82/88
f 11/10/89 14/12/91 54/49/92 51/100/90
f 14/12/91 15/14/93 55/51/94 54/49/92
f 15/14/93 18/16/95 58/53/96 55/51/94
f 18/16/95 19/18/97 59/55/98 58/53/96
f 19/18/97 22/20/99 62/57/100 59/55/98
f 22/20/99 23/22/101 63/59/102 62/57/100
f 23/22/101 26/24/103 66/61/104 63/59/102
f 26/24/103 27/26/105 67/63/106 66/61/104
f 27/26/105 30/28/107 70/65/108 67/63/106
f 30/28/107 31/30/109 71/67/110 70/65/108
f 31/30/109 34/32/111 74/69/112 71/67/110
f 34/32/111 35/34/113 75/71/114 74/69/112
f 35/34/113 38/36/115 78/73/116 75/71/114
f 38/36/115 39/38/117 79/75/118 78/73/116
f 39/38/117 42/5/119 82/42/120 79/75/118
f 42/5/119 3/1/81 43/39/84 82/42/120
s 4
f 5/3/121 4/2/122 1/77/123 8/83/124
f 9/79/125 8/83/124 1/77/123 12/9/126
f 13/11/127 12/9/126 1/77/123 16/13/128
f 17/15/129 16/13/128 1/77/123 20/17/130
f 21/19/131 20/17/130 1/77/123 24/21/132
f 25/23/133 24/21/132 1/77/123 28/25/134
f 29/27/135 28/25/134 1/77/123 32/29/136
f 33/31/137 32/29/136 1/77/123 36/33/138
f 37/35/139 36/33/138 1/77/123 40/37/140
f 41/6/141 40/37/140 1/77/123 4/2/122
s 2
f 2/78/142 44/40/42 45/44/46 48/46/48
f 2/78/142 48/46/48 49/84/50 52/48/52
f 2/78/142 52/48/52 53/50/54 56/52/56
f 2/78/142 56/52/56 57/54/58 60/56/60
f 2/78/142 60/56/60 61/58/62 64/60/64
f 2/78/142 64/60/64 65/62/66 68/64/68
f 2/78/142 68/64/68 69/66/70 72/68/72
f 2/78/142 72/68/72 73/70/74 76/72/76
f 2/78/142 76/72/76 77/74/78 80/76/80
f 2/78/142 80/76/80 81/41/43 44/40/42
