# This file uses centimeters as units for non-parametric coordinates.

mtllib Base_Block.mtl
g default
v -95.000504 -50.000000 195.000504
v -100.000000 -45.000500 200.000000
v 100.000000 -45.000500 200.000000
v 95.000504 -50.000000 195.000504
v -100.000000 45.000500 200.000000
v -95.000504 50.000000 195.000504
v 95.000504 50.000000 195.000504
v 100.000000 45.000500 200.000000
v -95.000504 50.000000 -195.000504
v -100.000000 45.000500 -200.000000
v 95.000504 50.000000 -195.000504
v 100.000000 45.000500 -200.000000
v -100.000000 -45.000500 -200.000000
v -95.000504 -50.000000 -195.000504
v 95.000504 -50.000000 -195.000504
v 100.000000 -45.000500 -200.000000
vt 1.000000 0.000000
vt 0.000000 0.689653
vt 0.844826 0.689653
vt 0.341251 0.843218
vt 0.008620 0.008620
vt 0.008620 0.681033
vt 0.836207 0.008620
vt 0.836207 0.681033
vt 0.344826 0.689653
vt 0.344826 0.000000
vt 0.500000 0.000000
vt 0.342558 0.689653
vt 0.336207 0.008620
vt 0.336207 0.681033
vt 0.508620 0.008620
vt 0.508620 0.681033
vt 0.000000 0.000000
vt 0.000000 0.689653
vt 0.341251 0.689654
vt 0.683809 0.843217
vt 0.342558 0.843217
vt 1.000000 0.689653
vt 0.683809 0.689653
vt 0.500000 0.689653
vt 0.000000 0.843218
vt 0.844826 0.000000
vn -0.035118 -0.999233 0.017337
vn -0.999479 -0.032267 0.000000
vn -0.999479 -0.032267 0.000000
vn -0.035118 -0.999233 -0.017337
vn 0.000000 -0.031873 0.999492
vn 0.035118 -0.999233 0.017337
vn 0.000000 -0.031873 0.999492
vn 0.999479 -0.032267 0.000000
vn 0.035118 -0.999233 -0.017337
vn 0.999479 -0.032267 0.000000
vn -0.999479 0.032267 0.000000
vn -0.035118 0.999233 0.017337
vn -0.035118 0.999233 -0.017337
vn -0.999479 0.032267 0.000000
vn 0.000000 0.031873 0.999492
vn 0.000000 0.031873 0.999492
vn 0.035118 0.999233 0.017337
vn 0.999479 0.032267 0.000000
vn 0.999479 0.032267 0.000000
vn 0.035118 0.999233 -0.017337
vn 0.000000 0.031873 -0.999492
vn 0.000000 0.031873 -0.999492
vn 0.000000 -0.031873 -0.999492
vn 0.000000 -0.031873 -0.999492
s 1
g pCube1
usemtl lambert2SG
f 1/13/1 2/10/2 13/9/3 14/14/4
f 2/10/5 1/13/1 4/5/6 3/17/7
f 3/17/8 4/5/6 15/6/9 16/2/10
f 5/11/11 6/15/12 9/16/13 10/24/14
f 6/15/12 5/11/15 8/26/16 7/7/17
f 7/7/17 8/26/18 12/3/19 11/8/20
f 10/24/21 9/16/13 11/8/20 12/3/22
f 14/14/4 13/9/23 16/2/24 15/6/9
f 2/18/5 3/19/7 8/4/16 5/25/15
f 6/15/12 7/7/17 11/8/20 9/16/13
f 10/12/21 12/23/22 16/20/24 13/21/23
f 14/14/4 15/6/9 4/5/6 1/13/1
f 3/1/8 16/22/10 12/3/19 8/26/18
f 13/9/3 2/10/2 5/11/11 10/24/14
